<svg xmlns="http://www.w3.org/2000/svg" xml:space="preserve" width="715.42993" height="726.07513" viewBox="0 0 715.42993 726.07512"><defs><clipPath id="a" clipPathUnits="userSpaceOnUse"><path d="M0 1080h1920V0H0Z"/></clipPath></defs><g style="stroke-width:1.43148"><g style="fill:#0050a2;stroke:none;stroke-width:.854596"><path d="M0 0h240.267c60.028 0 109.142-49.114 109.142-109.144v-247.087c0-60.03-49.114-109.144-109.142-109.144H0c-60.029 0-109.143 49.114-109.143 109.144v247.087C-109.143-49.114-60.029 0 0 0" style="fill:#0050a2;stroke:none;stroke-width:.484554;stroke-linecap:butt;stroke-linejoin:miter;stroke-miterlimit:22.926;stroke-dasharray:none;stroke-opacity:1" transform="matrix(1.5602 0 0 -1.5602 170.284 0)"/></g><g clip-path="url(#a)" style="fill:#fff;stroke-width:.987877" transform="matrix(1.34723 0 0 -1.35217 -481.162 1107.558)"><g style="fill:#fff;stroke-width:.987877"><path d="m0 0-133.947 3.118v-19.382l119.289-2.47c1.085-.023 1.974-.793 2.06-1.783.098-1.139-.897-2.108-2.145-2.087l-104.21 1.69c-8.237.134-14.994-5.943-14.994-13.487l.001-30.919H18.172l-1.627 18.936-120.769 1.285c-1.303.014-2.354.982-2.36 2.175-.006 1.221 1.081 2.21 2.415 2.196L3.543-41.846c6.781-.07 12.165 5.202 11.633 11.393l-1.604 18.669C13.011-5.254 7.152-.167 0 0" style="fill:#fff;fill-opacity:1;fill-rule:nonzero;stroke:none;stroke-width:.987877" transform="translate(760.828 625.347)"/></g><g style="fill:#fff;stroke-width:.987877"><path d="M0 0c4.209-.126 4.863 3.218 4.542 7.175L2.354 34.156l7.37-.37L8.32 51.195l-7.176.534-2.048 27.33c-.314 4.195-1.549 7.35-6.002 7.637l-16.836 1.087 5.905-87.25z" style="fill:#fff;fill-opacity:1;fill-rule:nonzero;stroke:none;stroke-width:.987877" transform="translate(765.831 629.065)"/></g><g style="fill:#fff;stroke-width:.987877"><path d="m0 0 5.94.167-.894-65.317h26.86V98.823L7.393 97.208 6.341 31.551c-.018-1.153-1.015-2.078-2.239-2.078H-.985L.036 97.016l-21.778-1.646-3.04-103.278.525-.223-.537-.197-1.673-56.822H-.985z" style="fill:#fff;fill-opacity:1;fill-rule:nonzero;stroke:none;stroke-width:.987877" transform="translate(581.232 625.177)"/></g><g style="fill:#fff;stroke-width:.987877"><path d="M0 0v15.923l-65.798 16.45-57.446-15.194-4.711 53.317L-.001 69.397v23.222h-149.167l6.109-75.244c.568-6.997 6.572-12.478 13.96-12.743z" style="fill:#fff;fill-opacity:1;fill-rule:nonzero;stroke:none;stroke-width:.987877" transform="translate(612.168 454.366)"/></g><g style="fill:#fff;stroke-width:.987877"><path d="m0 0-130.77 5.297.245-3.03c.847-10.488 9.774-18.781 20.917-19.431l90.118-5.253c1.394-.081 2.486-1.161 2.505-2.477.13-8.877 7.459-16.179 16.859-16.798l7.676-.506v34.772C7.55-3.445 4.221-.171 0 0" style="fill:#fff;fill-opacity:1;fill-rule:nonzero;stroke:none;stroke-width:.987877" transform="translate(605.588 419.34)"/></g><g style="fill:#fff;stroke-width:.987877"><path d="m0 0 138.922-5.597v22.118l-140.47 5.092Z" style="fill:#fff;fill-opacity:1;fill-rule:nonzero;stroke:none;stroke-width:.987877" transform="translate(474.216 431.215)"/></g><g style="fill:#fff;stroke-width:.987877"><path d="m0 0 5.468-15.733 31.958-8.844 19.395 5.283 21.755-5.283 34.327 7.349L116.2-2.04c-15.395-1.376-31.766-2.117-48.742-2.117C43.413-4.157 20.7-2.627.137.044Z" style="fill:#fff;fill-opacity:1;fill-rule:nonzero;stroke:none;stroke-width:.987877" transform="translate(489.466 514.806)"/></g><g style="fill:#fff;stroke-width:.987877"><path d="M0 0c3.737 1.451 7.602 2.951 11.698 3.994.508.129.959.265 1.363.423l-.744-.021 6.023 86.931-16.544-1.132c-4.838-.331-8.692-3.947-9.063-8.505l-7.082-86.966 9.69 3.506C-3.121-1.212-1.605-.624 0 0" style="fill:#fff;fill-opacity:1;fill-rule:nonzero;stroke:none;stroke-width:.987877" transform="translate(482.227 625.202)"/></g><g style="fill:#fff;stroke-width:.987877"><path d="M0 0c1.119-.4 2.169-.858 3.385-1.389.609-.266 1.292-.564 2.091-.902l6.265-2.649 2.952 100.087-23.202-1.533-4.576-88.302-1.692-.047c3.093-1.189 6.311-2.308 9.43-3.39A555 555 0 0 0 0 0" style="fill:#fff;fill-opacity:1;fill-rule:nonzero;stroke:none;stroke-width:.987877" transform="translate(537.81 625.126)"/></g><g style="fill:#fff;stroke-width:.987877"><path d="m0 0-6.348-2.338c-1.819-.67-3.577-1.378-5.277-2.061-3.342-1.344-6.529-2.621-9.9-3.534a42 42 0 0 0-1.877-.467c-1.262-.281-2.181-.627-2.885-1.287-.856-.799-1.39-2.062-1.816-4.248-.789-4.044-1.93-7.952-3.033-11.729-.357-1.222-.714-2.443-1.058-3.667a8 8 0 0 0-.327-.939c-.365-.876-.829-1.566-1.251-2.193-.213-.316-.434-.643-.681-1.05l-5.293-8.697-1.399-2.298-.735 2.298-3.189 9.96c-.214.667-.429 1.322-.644 1.98a849 849 0 0 1-1.419 4.3c-1.646 4.946-3.201 9.616-4.458 14.494-.478 1.857-.75 1.938-2.06 2.327-.256.075-.51.158-.765.236q-1.525.465-3.044.98c-4.969 1.686-9.911 3.774-15.001 6.351l-9.248 4.68-4.667-57.319 84.777.056z" style="fill:#fff;fill-opacity:1;fill-rule:nonzero;stroke:none;stroke-width:.987877" transform="translate(549.375 614.247)"/></g><g style="fill:#fff;stroke-width:.987877"><path d="m0 0 144.432 5.242 1.103 13.479L-.001 30.217Z" style="fill:#fff;fill-opacity:1;fill-rule:nonzero;stroke:none;stroke-width:.987877" transform="translate(626.882 453.48)"/></g><g style="fill:#fff;stroke-width:.987877"><path d="m0 0-89.368-5.327.093 10.331L.109 9.901zm2.085 31.466-90.983-4.136.273 13.957-26.229-1.259v-70.281L2.007-22.474c12.551.836 22.555 10.216 23.501 22.037l3.657 45.664-26.254-1.29z" style="fill:#fff;fill-opacity:1;fill-rule:nonzero;stroke:none;stroke-width:.987877" transform="translate(741.735 407.394)"/></g><g style="fill:#fff;stroke-width:.987877"><path d="m0 0 125.419 1.102-3.1-43.473 23.984.922 5.816 65.051H0Z" style="fill:#fff;fill-opacity:1;fill-rule:nonzero;stroke:none;stroke-width:.987877" transform="translate(626.88 523.384)"/></g><g style="fill:#fff;stroke-width:.987877"><path d="m0 0-87.22 3.032-.671 54.223 86.192-5.098-.586 17.518-110.235 7.151v-90.924l103.211-2.277z" style="fill:#fff;fill-opacity:1;fill-rule:nonzero;stroke:none;stroke-width:.987877" transform="translate(739.4 647.174)"/></g><g style="fill:#fff;stroke-width:.987877"><path d="M0 0c5.966-3.02 11.81-5.392 17.827-7.176 2.79-.827 4.367-2.165 5.365-4.417.12-.267.238-.536.341-.832q.205-.584.375-1.245c1.706-6.625 4.063-13.084 6.365-20.26l.061-.188.118.188c.797 1.283 1.317 1.864 1.505 2.529 1.394 4.96 2.996 9.886 3.98 14.93.313 1.611.74 3.041 1.334 4.297q.142.298.297.581c1.43 2.641 3.728 4.416 7.562 5.269 5.287 1.175 10.289 3.627 16.299 5.84-2.362.998-3.739 1.659-5.168 2.171-5.099 1.826-10.252 3.505-15.299 5.46-1.278.496-2.649 1.603-3.249 2.795-.374.742-.635 1.539-.854 2.358-.315 1.172-.541 2.388-.87 3.556-1.563 5.543-3.139 11.082-4.709 16.623l-1.181-.038c-1.839-5.737-4.127-11.379-5.385-17.241-.259-1.21-.591-2.292-1.006-3.266-1.399-3.286-3.786-5.292-7.902-6.34C10.412 4.222 5.259 1.904 0 0" style="fill:#fff;fill-opacity:1;fill-rule:nonzero;stroke:none;stroke-width:.987877" transform="translate(479.568 617.907)"/></g></g></g></svg>